<?xml version="1.0" encoding="us-ascii" standalone="no"?><svg xmlns="http://www.w3.org/2000/svg" xmlns:xlink="http://www.w3.org/1999/xlink" contentStyleType="text/css" height="209px" preserveAspectRatio="none" style="width:1257px;height:209px;background:#FFFFFF;" version="1.1" viewBox="0 0 1257 209" width="1257px" zoomAndPan="magnify"><defs/><g><rect fill="#F1F1F1" height="102.4414" rx="5" ry="5" style="stroke:#F1F1F1;stroke-width:1.5;" width="258" x="10" y="47.2793"/><text fill="#000000" font-family="sans-serif" font-size="14" font-weight="bold" lengthAdjust="spacing" textLength="81" x="15" y="62.8145">description</text><text fill="#000000" font-family="sans-serif" font-size="14" lengthAdjust="spacing" textLength="139" x="124" y="62.8145">TRINAMIC TMC5041</text><line style="stroke:#000000;stroke-width:1.0;" x1="119" x2="119" y1="47.2793" y2="67.7676"/><line style="stroke:#000000;stroke-width:1.0;" x1="10" x2="268" y1="67.7676" y2="67.7676"/><text fill="#000000" font-family="sans-serif" font-size="14" font-weight="bold" lengthAdjust="spacing" textLength="80" x="15" y="83.3027">compatible</text><text fill="#000000" font-family="sans-serif" font-size="14" lengthAdjust="spacing" textLength="121" x="124" y="83.3027">trinamic,tmc5041</text><line style="stroke:#000000;stroke-width:1.0;" x1="119" x2="119" y1="67.7676" y2="88.2559"/><line style="stroke:#000000;stroke-width:1.0;" x1="10" x2="268" y1="88.2559" y2="88.2559"/><text fill="#000000" font-family="sans-serif" font-size="14" font-weight="bold" lengthAdjust="spacing" textLength="52" x="15" y="103.791">include</text><text fill="#000000" font-family="sans-serif" font-size="14" lengthAdjust="spacing" textLength="12" x="124" y="103.791">&#160;&#160;&#160;</text><line style="stroke:#000000;stroke-width:1.0;" x1="119" x2="119" y1="88.2559" y2="108.7441"/><line style="stroke:#000000;stroke-width:1.0;" x1="10" x2="268" y1="108.7441" y2="108.7441"/><text fill="#000000" font-family="sans-serif" font-size="14" font-weight="bold" lengthAdjust="spacing" textLength="74" x="15" y="124.2793">properties</text><text fill="#000000" font-family="sans-serif" font-size="14" lengthAdjust="spacing" textLength="12" x="124" y="124.2793">&#160;&#160;&#160;</text><line style="stroke:#000000;stroke-width:1.0;" x1="119" x2="119" y1="108.7441" y2="129.2324"/><line style="stroke:#000000;stroke-width:1.0;" x1="10" x2="268" y1="129.2324" y2="129.2324"/><text fill="#000000" font-family="sans-serif" font-size="14" font-weight="bold" lengthAdjust="spacing" textLength="99" x="15" y="144.7676">child-binding</text><text fill="#000000" font-family="sans-serif" font-size="14" lengthAdjust="spacing" textLength="12" x="124" y="144.7676">&#160;&#160;&#160;</text><line style="stroke:#000000;stroke-width:1.0;" x1="119" x2="119" y1="129.2324" y2="149.7207"/><rect fill="none" height="102.4414" rx="5" ry="5" style="stroke:#000000;stroke-width:1.5;" width="258" x="10" y="47.2793"/><rect fill="#F1F1F1" height="61.4648" rx="5" ry="5" style="stroke:#F1F1F1;stroke-width:1.5;" width="291" x="305" y="18.7676"/><text fill="#000000" font-family="sans-serif" font-size="14" font-weight="bold" lengthAdjust="spacing" textLength="81" x="310" y="34.3027">description</text><text fill="#000000" font-family="sans-serif" font-size="14" lengthAdjust="spacing" textLength="172" x="419" y="34.3027">Stepper Motor Controller</text><line style="stroke:#000000;stroke-width:1.0;" x1="414" x2="414" y1="18.7676" y2="39.2559"/><line style="stroke:#000000;stroke-width:1.0;" x1="305" x2="596" y1="39.2559" y2="39.2559"/><text fill="#000000" font-family="sans-serif" font-size="14" font-weight="bold" lengthAdjust="spacing" textLength="52" x="310" y="54.791">include</text><text fill="#000000" font-family="sans-serif" font-size="14" lengthAdjust="spacing" textLength="12" x="419" y="54.791">&#160;&#160;&#160;</text><line style="stroke:#000000;stroke-width:1.0;" x1="414" x2="414" y1="39.2559" y2="59.7441"/><line style="stroke:#000000;stroke-width:1.0;" x1="305" x2="596" y1="59.7441" y2="59.7441"/><text fill="#000000" font-family="sans-serif" font-size="14" font-weight="bold" lengthAdjust="spacing" textLength="99" x="310" y="75.2793">child-binding</text><text fill="#000000" font-family="sans-serif" font-size="14" lengthAdjust="spacing" textLength="12" x="419" y="75.2793">&#160;&#160;&#160;</text><line style="stroke:#000000;stroke-width:1.0;" x1="414" x2="414" y1="59.7441" y2="80.2324"/><rect fill="none" height="61.4648" rx="5" ry="5" style="stroke:#000000;stroke-width:1.5;" width="291" x="305" y="18.7676"/><rect fill="#F1F1F1" height="40.9766" rx="5" ry="5" style="stroke:#F1F1F1;stroke-width:1.5;" width="234" x="633" y="10"/><text fill="#000000" font-family="sans-serif" font-size="14" font-weight="bold" lengthAdjust="spacing" textLength="81" x="638" y="25.5352">description</text><text fill="#000000" font-family="sans-serif" font-size="14" lengthAdjust="spacing" textLength="115" x="747" y="25.5352">Motor Controller</text><line style="stroke:#000000;stroke-width:1.0;" x1="742" x2="742" y1="10" y2="30.4883"/><line style="stroke:#000000;stroke-width:1.0;" x1="633" x2="867" y1="30.4883" y2="30.4883"/><text fill="#000000" font-family="sans-serif" font-size="14" font-weight="bold" lengthAdjust="spacing" textLength="99" x="638" y="46.0234">child-binding</text><text fill="#000000" font-family="sans-serif" font-size="14" lengthAdjust="spacing" textLength="12" x="747" y="46.0234">&#160;&#160;&#160;</text><line style="stroke:#000000;stroke-width:1.0;" x1="742" x2="742" y1="30.4883" y2="50.9766"/><rect fill="none" height="40.9766" rx="5" ry="5" style="stroke:#000000;stroke-width:1.5;" width="234" x="633" y="10"/><rect fill="#F1F1F1" height="40.9766" rx="5" ry="5" style="stroke:#F1F1F1;stroke-width:1.5;" width="142" x="929" y="20"/><text fill="#000000" font-family="sans-serif" font-size="14" font-weight="bold" lengthAdjust="spacing" textLength="81" x="934" y="35.5352">description</text><text fill="#000000" font-family="sans-serif" font-size="14" lengthAdjust="spacing" textLength="41" x="1025" y="35.5352">Motor</text><line style="stroke:#000000;stroke-width:1.0;" x1="1020" x2="1020" y1="20" y2="40.4883"/><line style="stroke:#000000;stroke-width:1.0;" x1="929" x2="1071" y1="40.4883" y2="40.4883"/><text fill="#000000" font-family="sans-serif" font-size="14" font-weight="bold" lengthAdjust="spacing" textLength="74" x="934" y="56.0234">properties</text><text fill="#000000" font-family="sans-serif" font-size="14" lengthAdjust="spacing" textLength="12" x="1025" y="56.0234">&#160;&#160;&#160;</text><line style="stroke:#000000;stroke-width:1.0;" x1="1020" x2="1020" y1="40.4883" y2="60.9766"/><rect fill="none" height="40.9766" rx="5" ry="5" style="stroke:#000000;stroke-width:1.5;" width="142" x="929" y="20"/><rect fill="#F1F1F1" height="20.4883" rx="5" ry="5" style="stroke:#F1F1F1;stroke-width:1.5;" width="112" x="1133" y="40.2559"/><text fill="#000000" font-family="sans-serif" font-size="14" font-weight="bold" lengthAdjust="spacing" textLength="74" x="1138" y="55.791">gear-ratio</text><text fill="#000000" font-family="sans-serif" font-size="14" lengthAdjust="spacing" textLength="18" x="1222" y="55.791">int</text><line style="stroke:#000000;stroke-width:1.0;" x1="1217" x2="1217" y1="40.2559" y2="60.7441"/><rect fill="none" height="20.4883" rx="5" ry="5" style="stroke:#000000;stroke-width:1.5;" width="112" x="1133" y="40.2559"/><rect fill="#F1F1F1" height="40.9766" rx="5" ry="5" style="stroke:#F1F1F1;stroke-width:1.5;" width="199" x="650.5" y="69"/><text fill="#000000" font-family="sans-serif" font-size="14" font-weight="bold" lengthAdjust="spacing" textLength="81" x="655.5" y="84.5352">description</text><text fill="#000000" font-family="sans-serif" font-size="14" lengthAdjust="spacing" textLength="98" x="746.5" y="84.5352">Stepper Motor</text><line style="stroke:#000000;stroke-width:1.0;" x1="741.5" x2="741.5" y1="69" y2="89.4883"/><line style="stroke:#000000;stroke-width:1.0;" x1="650.5" x2="849.5" y1="89.4883" y2="89.4883"/><text fill="#000000" font-family="sans-serif" font-size="14" font-weight="bold" lengthAdjust="spacing" textLength="74" x="655.5" y="105.0234">properties</text><text fill="#000000" font-family="sans-serif" font-size="14" lengthAdjust="spacing" textLength="12" x="746.5" y="105.0234">&#160;&#160;&#160;</text><line style="stroke:#000000;stroke-width:1.0;" x1="741.5" x2="741.5" y1="89.4883" y2="109.9766"/><rect fill="none" height="40.9766" rx="5" ry="5" style="stroke:#000000;stroke-width:1.5;" width="199" x="650.5" y="69"/><rect fill="#F1F1F1" height="40.9766" rx="5" ry="5" style="stroke:#F1F1F1;stroke-width:1.5;" width="192" x="904" y="79"/><text fill="#000000" font-family="sans-serif" font-size="14" font-weight="bold" lengthAdjust="spacing" textLength="154" x="909" y="94.5352">steps-per-revolution</text><text fill="#000000" font-family="sans-serif" font-size="14" lengthAdjust="spacing" textLength="18" x="1073" y="94.5352">int</text><line style="stroke:#000000;stroke-width:1.0;" x1="1068" x2="1068" y1="79" y2="99.4883"/><line style="stroke:#000000;stroke-width:1.0;" x1="904" x2="1096" y1="99.4883" y2="99.4883"/><text fill="#000000" font-family="sans-serif" font-size="14" font-weight="bold" lengthAdjust="spacing" textLength="112" x="909" y="115.0234">micro-step-res</text><text fill="#000000" font-family="sans-serif" font-size="14" lengthAdjust="spacing" textLength="18" x="1073" y="115.0234">int</text><line style="stroke:#000000;stroke-width:1.0;" x1="1068" x2="1068" y1="99.4883" y2="119.9766"/><rect fill="none" height="40.9766" rx="5" ry="5" style="stroke:#000000;stroke-width:1.5;" width="192" x="904" y="79"/><rect fill="#F1F1F1" height="40.9766" rx="5" ry="5" style="stroke:#F1F1F1;stroke-width:1.5;" width="284" x="308.5" y="98"/><text fill="#000000" font-family="sans-serif" font-size="14" font-weight="bold" lengthAdjust="spacing" textLength="119" x="313.5" y="113.5352">"#address-cells"</text><text fill="#000000" font-family="sans-serif" font-size="14" lengthAdjust="spacing" textLength="145" x="442.5" y="113.5352">default = 1 const = 1</text><line style="stroke:#000000;stroke-width:1.0;" x1="437.5" x2="437.5" y1="98" y2="118.4883"/><line style="stroke:#000000;stroke-width:1.0;" x1="308.5" x2="592.5" y1="118.4883" y2="118.4883"/><text fill="#000000" font-family="sans-serif" font-size="14" font-weight="bold" lengthAdjust="spacing" textLength="92" x="313.5" y="134.0234">"#size-cells"</text><text fill="#000000" font-family="sans-serif" font-size="14" lengthAdjust="spacing" textLength="145" x="442.5" y="134.0234">default = 0 const = 0</text><line style="stroke:#000000;stroke-width:1.0;" x1="437.5" x2="437.5" y1="118.4883" y2="138.9766"/><rect fill="none" height="40.9766" rx="5" ry="5" style="stroke:#000000;stroke-width:1.5;" width="284" x="308.5" y="98"/><rect fill="#F1F1F1" height="40.9766" rx="5" ry="5" style="stroke:#F1F1F1;stroke-width:1.5;" width="228" x="336.5" y="157"/><text fill="#000000" font-family="sans-serif" font-size="14" font-weight="bold" lengthAdjust="spacing" textLength="81" x="341.5" y="172.5352">description</text><text fill="#000000" font-family="sans-serif" font-size="14" lengthAdjust="spacing" textLength="127" x="432.5" y="172.5352">tmc stepper motor</text><line style="stroke:#000000;stroke-width:1.0;" x1="427.5" x2="427.5" y1="157" y2="177.4883"/><line style="stroke:#000000;stroke-width:1.0;" x1="336.5" x2="564.5" y1="177.4883" y2="177.4883"/><text fill="#000000" font-family="sans-serif" font-size="14" font-weight="bold" lengthAdjust="spacing" textLength="74" x="341.5" y="193.0234">properties</text><text fill="#000000" font-family="sans-serif" font-size="14" lengthAdjust="spacing" textLength="12" x="432.5" y="193.0234">&#160;&#160;&#160;</text><line style="stroke:#000000;stroke-width:1.0;" x1="427.5" x2="427.5" y1="177.4883" y2="197.9766"/><rect fill="none" height="40.9766" rx="5" ry="5" style="stroke:#000000;stroke-width:1.5;" width="228" x="336.5" y="157"/><rect fill="#F1F1F1" height="20.4883" rx="5" ry="5" style="stroke:#F1F1F1;stroke-width:1.5;" width="180" x="660" y="177.2559"/><text fill="#000000" font-family="sans-serif" font-size="14" font-weight="bold" lengthAdjust="spacing" textLength="142" x="665" y="192.791">stall-guard-setting</text><text fill="#000000" font-family="sans-serif" font-size="14" lengthAdjust="spacing" textLength="18" x="817" y="192.791">int</text><line style="stroke:#000000;stroke-width:1.0;" x1="812" x2="812" y1="177.2559" y2="197.7441"/><rect fill="none" height="20.4883" rx="5" ry="5" style="stroke:#000000;stroke-width:1.5;" width="180" x="660" y="177.2559"/><path d="M1059.5,50.5 L1072.5,50.5 C1089.7022,50.5 1108.3394,50.5 1125.5388,50.5 " fill="none" style="stroke:#000000;stroke-width:1.0;stroke-dasharray:3.0,3.0;"/><path d="M1125.5388,53.6164 L1127.8761,50.5 L1125.5388,47.3836 L1133.3297,50.5 L1125.5388,53.6164 " fill="#000000" style="stroke:#000000;stroke-width:1.0;"/><ellipse cx="1059.5" cy="50.5" fill="#000000" rx="3" ry="3" style="stroke:#000000;stroke-width:1.0;"/><path d="M855,40.5 L868,40.5 C885.2241,40.5 903.7171,40.5 921.2353,40.5 " fill="none" style="stroke:#000000;stroke-width:1.0;stroke-dasharray:3.0,3.0;"/><path d="M921.2353,43.6889 L923.627,40.5 L921.2353,37.3111 L929.2075,40.5 L921.2353,43.6889 " fill="#000000" style="stroke:#000000;stroke-width:1.0;"/><ellipse cx="855" cy="40.5" fill="#000000" rx="3" ry="3" style="stroke:#000000;stroke-width:1.0;"/><path d="M584,49.5 L597,49.5 C606.2631,49.5 615.8186,49.1505 625.4168,48.5464 " fill="none" style="stroke:#000000;stroke-width:1.0;stroke-dasharray:3.0,3.0;"/><path d="M625.6317,51.6272 L627.7273,48.3852 L625.2018,45.4656 L633.1187,48.0091 L625.6317,51.6272 " fill="#000000" style="stroke:#000000;stroke-width:1.0;"/><ellipse cx="584" cy="49.5" fill="#000000" rx="3" ry="3" style="stroke:#000000;stroke-width:1.0;"/><path d="M838.5,99.5 L851.5,99.5 C866.0505,99.5 881.4056,99.5 896.4975,99.5 " fill="none" style="stroke:#000000;stroke-width:1.0;stroke-dasharray:3.0,3.0;"/><path d="M896.4975,102.645 L898.8562,99.5 L896.4975,96.355 L904.3599,99.5 L896.4975,102.645 " fill="#000000" style="stroke:#000000;stroke-width:1.0;"/><ellipse cx="838.5" cy="99.5" fill="#000000" rx="3" ry="3" style="stroke:#000000;stroke-width:1.0;"/><path d="M584,69.5 L597,69.5 C612.0305,69.5 627.8242,70.4669 643.3186,71.9756 " fill="none" style="stroke:#000000;stroke-width:1.0;stroke-dasharray:3.0,3.0;"/><path d="M643.0057,75.0067 L645.5919,72.2103 L643.6315,68.9445 L650.8963,72.7579 L643.0057,75.0067 " fill="#000000" style="stroke:#000000;stroke-width:1.0;"/><ellipse cx="584" cy="69.5" fill="#000000" rx="3" ry="3" style="stroke:#000000;stroke-width:1.0;"/><path d="M256,98.5 L269,98.5 C285.6058,98.5 288.9819,92.8788 305,88.5 C312.3551,86.4894 319.9224,84.429 327.5574,82.3567 " fill="none" style="stroke:#000000;stroke-width:1.0;stroke-dasharray:3.0,3.0;"/><path d="M328.3874,85.4175 L329.853,81.7341 L326.7274,79.2958 L335.2096,80.2816 L328.3874,85.4175 " fill="#000000" style="stroke:#000000;stroke-width:1.0;"/><ellipse cx="256" cy="98.5" fill="#000000" rx="3" ry="3" style="stroke:#000000;stroke-width:1.0;"/><path d="M256,118.5 L269,118.5 C279.468,118.5 290.2765,118.5 301.1597,118.5 " fill="none" style="stroke:#000000;stroke-width:1.0;stroke-dasharray:3.0,3.0;"/><path d="M301.1597,121.5173 L303.4227,118.5 L301.1597,115.4827 L308.7029,118.5 L301.1597,121.5173 " fill="#000000" style="stroke:#000000;stroke-width:1.0;"/><ellipse cx="256" cy="118.5" fill="#000000" rx="3" ry="3" style="stroke:#000000;stroke-width:1.0;"/><path d="M553,187.5 L566,187.5 C594.1007,187.5 624.6219,187.5 652.5596,187.5 " fill="none" style="stroke:#000000;stroke-width:1.0;stroke-dasharray:3.0,3.0;"/><path d="M652.5596,190.6229 L654.9017,187.5 L652.5596,184.3771 L660.3668,187.5 L652.5596,190.6229 " fill="#000000" style="stroke:#000000;stroke-width:1.0;"/><ellipse cx="553" cy="187.5" fill="#000000" rx="3" ry="3" style="stroke:#000000;stroke-width:1.0;"/><path d="M256,139.5 L269,139.5 C285.3903,139.5 288.9744,144.0617 305,147.5 C317.0814,150.092 329.7378,152.7683 342.3273,155.4058 " fill="none" style="stroke:#000000;stroke-width:1.0;stroke-dasharray:3.0,3.0;"/><path d="M341.7083,158.3658 L344.5473,155.8701 L342.9463,152.4458 L349.7272,156.9533 L341.7083,158.3658 " fill="#000000" style="stroke:#000000;stroke-width:1.0;"/><ellipse cx="256" cy="139.5" fill="#000000" rx="3" ry="3" style="stroke:#000000;stroke-width:1.0;"/><!--SRC=[TLB1JkCm43t7Np7gNa32A445iP5MWatBYcx38WZSNNiebXmxifrAhFRZcRXTqQZWsyoyzsRUUAv253w-YTOmfZ18hxkedIsXURYzkwvlAsZgwZoV5en9rtOYwfN14YRHQojQBKzYAuVoX35jfUaLbYmR2Jr6x3hqKBleF5JEHk-CGS-o3yAOSOZCvAisYg-qLTgk1y8dZ27RUKUzeiQGGDaQXUUUfdOb_4iPwXhPeTxN8xC3rK3bm2d3FMwSwRUahNnIppBQZ7Ty018cx1VPlXZ0v9jGYY21IpGcJ0Oeq5Fu8deJuGSKAPREXcsKI47_nIyP-OYHqy-DtGxOFRVqWn1sZjla660y951T6CFNlV2A1unnqDdr1KYshj2gxHdT6s7ZKxs43Vf07Q0uFSlFfgV5KVFQmmsk82-W-5uMb-Nv5Afv0qFvc1tzkbz2SBsN24e7kh1LMkqnMuYDW8VUHjtIxVtfq2vcl_ydO6utsZlR8esnUAu_01TJ_bD7U4HFay1ppMQx5SsjT6aLyDJSy4ks59QihKaRBQiSwVgt4cRpTm00]--></g></svg>