<?xml version="1.0" encoding="us-ascii" standalone="no"?><svg xmlns="http://www.w3.org/2000/svg" xmlns:xlink="http://www.w3.org/1999/xlink" contentStyleType="text/css" height="360px" preserveAspectRatio="none" style="width:696px;height:360px;background:#FFFFFF;" version="1.1" viewBox="0 0 696 360" width="696px" zoomAndPan="magnify"><defs/><g><!--class motor_controller_bindings--><g id="elem_motor_controller_bindings"><rect codeLine="3" fill="#F1F1F1" height="80.9766" id="motor_controller_bindings" rx="2.5" ry="2.5" style="stroke:#181818;stroke-width:0.5;" width="215" x="309" y="272.46"/><ellipse cx="324" cy="288.46" fill="#ADD1B2" rx="11" ry="11" style="stroke:#181818;stroke-width:1.0;"/><path d="M326.9731,294.1031 Q326.3921,294.4019 325.7529,294.5513 Q325.1138,294.7007 324.4082,294.7007 Q321.9014,294.7007 320.5815,293.0489 Q319.2617,291.397 319.2617,288.2759 Q319.2617,285.1465 320.5815,283.4947 Q321.9014,281.8428 324.4082,281.8428 Q325.1138,281.8428 325.7612,281.9922 Q326.4087,282.1416 326.9731,282.4405 L326.9731,285.1631 Q326.3423,284.5821 325.7488,284.3123 Q325.1553,284.0425 324.5244,284.0425 Q323.1797,284.0425 322.4949,285.1092 Q321.8101,286.1758 321.8101,288.2759 Q321.8101,290.3677 322.4949,291.4344 Q323.1797,292.501 324.5244,292.501 Q325.1553,292.501 325.7488,292.2312 Q326.3423,291.9615 326.9731,291.3804 Z " fill="#000000"/><text fill="#000000" font-family="sans-serif" font-size="14" lengthAdjust="spacing" textLength="183" x="338" y="293.751">motor_controller_bindings</text><line style="stroke:#181818;stroke-width:0.5;" x1="310" x2="523" y1="304.46" y2="304.46"/><text fill="#000000" font-family="sans-serif" font-size="14" lengthAdjust="spacing" textLength="45" x="315" y="321.9952">int reg</text><text fill="#000000" font-family="sans-serif" font-size="14" lengthAdjust="spacing" textLength="114" x="315" y="338.4834">string gear_ratio</text><line style="stroke:#181818;stroke-width:0.5;" x1="310" x2="523" y1="345.4366" y2="345.4366"/></g><!--class steppermotor_controller_bindings--><g id="elem_steppermotor_controller_bindings"><rect codeLine="7" fill="#F1F1F1" height="80.9766" id="steppermotor_controller_bindings" rx="2.5" ry="2.5" style="stroke:#181818;stroke-width:0.5;" width="267" x="136" y="131.49"/><ellipse cx="151" cy="147.49" fill="#ADD1B2" rx="11" ry="11" style="stroke:#181818;stroke-width:1.0;"/><path d="M153.9731,153.1331 Q153.3921,153.4319 152.7529,153.5813 Q152.1138,153.7307 151.4082,153.7307 Q148.9014,153.7307 147.5815,152.0789 Q146.2617,150.427 146.2617,147.3059 Q146.2617,144.1765 147.5815,142.5247 Q148.9014,140.8728 151.4082,140.8728 Q152.1138,140.8728 152.7612,141.0222 Q153.4087,141.1716 153.9731,141.4705 L153.9731,144.1931 Q153.3423,143.6121 152.7488,143.3423 Q152.1553,143.0725 151.5244,143.0725 Q150.1797,143.0725 149.4949,144.1392 Q148.8101,145.2058 148.8101,147.3059 Q148.8101,149.3977 149.4949,150.4644 Q150.1797,151.531 151.5244,151.531 Q152.1553,151.531 152.7488,151.2612 Q153.3423,150.9915 153.9731,150.4104 Z " fill="#000000"/><text fill="#000000" font-family="sans-serif" font-size="14" lengthAdjust="spacing" textLength="235" x="165" y="152.781">steppermotor_controller_bindings</text><line style="stroke:#181818;stroke-width:0.5;" x1="137" x2="402" y1="163.49" y2="163.49"/><text fill="#000000" font-family="sans-serif" font-size="14" lengthAdjust="spacing" textLength="195" x="142" y="181.0252">enum micro_step_resolution</text><text fill="#000000" font-family="sans-serif" font-size="14" lengthAdjust="spacing" textLength="165" x="142" y="197.5134">int steps_per_revolution</text><line style="stroke:#181818;stroke-width:0.5;" x1="137" x2="402" y1="204.4666" y2="204.4666"/></g><!--class servomotor_controller_bindings--><g id="elem_servomotor_controller_bindings"><rect codeLine="11" fill="#F1F1F1" height="48" id="servomotor_controller_bindings" rx="2.5" ry="2.5" style="stroke:#181818;stroke-width:0.5;" width="252" x="437.5" y="147.98"/><ellipse cx="452.5" cy="163.98" fill="#ADD1B2" rx="11" ry="11" style="stroke:#181818;stroke-width:1.0;"/><path d="M455.4731,169.6231 Q454.8921,169.9219 454.2529,170.0713 Q453.6138,170.2207 452.9082,170.2207 Q450.4014,170.2207 449.0815,168.5689 Q447.7617,166.917 447.7617,163.7959 Q447.7617,160.6665 449.0815,159.0147 Q450.4014,157.3628 452.9082,157.3628 Q453.6138,157.3628 454.2612,157.5122 Q454.9087,157.6616 455.4731,157.9605 L455.4731,160.6831 Q454.8423,160.1021 454.2488,159.8323 Q453.6553,159.5625 453.0244,159.5625 Q451.6797,159.5625 450.9949,160.6292 Q450.3101,161.6958 450.3101,163.7959 Q450.3101,165.8877 450.9949,166.9544 Q451.6797,168.021 453.0244,168.021 Q453.6553,168.021 454.2488,167.7512 Q454.8423,167.4815 455.4731,166.9004 Z " fill="#000000"/><text fill="#000000" font-family="sans-serif" font-size="14" lengthAdjust="spacing" textLength="220" x="466.5" y="169.271">servomotor_controller_bindings</text><line style="stroke:#181818;stroke-width:0.5;" x1="438.5" x2="688.5" y1="179.98" y2="179.98"/><line style="stroke:#181818;stroke-width:0.5;" x1="438.5" x2="688.5" y1="187.98" y2="187.98"/></g><!--class trinamic_tmc5041_bindings--><g id="elem_trinamic_tmc5041_bindings"><rect codeLine="12" fill="#F1F1F1" height="64.4883" id="trinamic_tmc5041_bindings" rx="2.5" ry="2.5" style="stroke:#181818;stroke-width:0.5;" width="223" x="7" y="7"/><ellipse cx="22" cy="23" fill="#ADD1B2" rx="11" ry="11" style="stroke:#181818;stroke-width:1.0;"/><path d="M24.9731,28.6431 Q24.3921,28.9419 23.7529,29.0913 Q23.1138,29.2407 22.4082,29.2407 Q19.9014,29.2407 18.5815,27.5889 Q17.2617,25.937 17.2617,22.8159 Q17.2617,19.6865 18.5815,18.0347 Q19.9014,16.3828 22.4082,16.3828 Q23.1138,16.3828 23.7612,16.5322 Q24.4087,16.6816 24.9731,16.9805 L24.9731,19.7031 Q24.3423,19.1221 23.7488,18.8523 Q23.1553,18.5825 22.5244,18.5825 Q21.1797,18.5825 20.4949,19.6492 Q19.8101,20.7158 19.8101,22.8159 Q19.8101,24.9077 20.4949,25.9744 Q21.1797,27.041 22.5244,27.041 Q23.1553,27.041 23.7488,26.7712 Q24.3423,26.5015 24.9731,25.9204 Z " fill="#000000"/><text fill="#000000" font-family="sans-serif" font-size="14" lengthAdjust="spacing" textLength="191" x="36" y="28.291">trinamic_tmc5041_bindings</text><line style="stroke:#181818;stroke-width:0.5;" x1="8" x2="229" y1="39" y2="39"/><text fill="#000000" font-family="sans-serif" font-size="14" lengthAdjust="spacing" textLength="161" x="13" y="56.5352">int stall-guard-settings</text><line style="stroke:#181818;stroke-width:0.5;" x1="8" x2="229" y1="63.4883" y2="63.4883"/></g><!--class gpio_stepper_motor_controller_bindings--><g id="elem_gpio_stepper_motor_controller_bindings"><rect codeLine="16" fill="#F1F1F1" height="64.4883" id="gpio_stepper_motor_controller_bindings" rx="2.5" ry="2.5" style="stroke:#181818;stroke-width:0.5;" width="312" x="264.5" y="7"/><ellipse cx="279.5" cy="23" fill="#ADD1B2" rx="11" ry="11" style="stroke:#181818;stroke-width:1.0;"/><path d="M282.4731,28.6431 Q281.8921,28.9419 281.2529,29.0913 Q280.6138,29.2407 279.9082,29.2407 Q277.4014,29.2407 276.0815,27.5889 Q274.7617,25.937 274.7617,22.8159 Q274.7617,19.6865 276.0815,18.0347 Q277.4014,16.3828 279.9082,16.3828 Q280.6138,16.3828 281.2612,16.5322 Q281.9087,16.6816 282.4731,16.9805 L282.4731,19.7031 Q281.8423,19.1221 281.2488,18.8523 Q280.6553,18.5825 280.0244,18.5825 Q278.6797,18.5825 277.9949,19.6492 Q277.3101,20.7158 277.3101,22.8159 Q277.3101,24.9077 277.9949,25.9744 Q278.6797,27.041 280.0244,27.041 Q280.6553,27.041 281.2488,26.7712 Q281.8423,26.5015 282.4731,25.9204 Z " fill="#000000"/><text fill="#000000" font-family="sans-serif" font-size="14" lengthAdjust="spacing" textLength="280" x="293.5" y="28.291">gpio_stepper_motor_controller_bindings</text><line style="stroke:#181818;stroke-width:0.5;" x1="265.5" x2="575.5" y1="39" y2="39"/><text fill="#000000" font-family="sans-serif" font-size="14" lengthAdjust="spacing" textLength="141" x="270.5" y="56.5352">phandle-array gpios</text><line style="stroke:#181818;stroke-width:0.5;" x1="265.5" x2="575.5" y1="63.4883" y2="63.4883"/></g><!--link steppermotor_controller_bindings to motor_controller_bindings--><g id="link_steppermotor_controller_bindings_motor_controller_bindings"><path codeLine="20" d="M311.62,212.8 C331.31,231.41 350.3305,249.3875 370.0105,267.9975 " fill="none" id="steppermotor_controller_bindings-to-motor_controller_bindings" style="stroke:#181818;stroke-width:1.0;stroke-dasharray:7.0,7.0;"/><polygon fill="#181818" points="374.37,272.12,370.5791,263.03,370.7371,268.6846,365.0824,268.8426,374.37,272.12" style="stroke:#181818;stroke-width:1.0;"/></g><!--link servomotor_controller_bindings to motor_controller_bindings--><g id="link_servomotor_controller_bindings_motor_controller_bindings"><path codeLine="21" d="M538.9,196.24 C517.07,216.87 489.0902,243.3283 463.1302,267.8683 " fill="none" id="servomotor_controller_bindings-to-motor_controller_bindings" style="stroke:#181818;stroke-width:1.0;stroke-dasharray:7.0,7.0;"/><polygon fill="#181818" points="458.77,271.99,468.0581,268.7142,462.4035,268.5552,462.5625,262.9006,458.77,271.99" style="stroke:#181818;stroke-width:1.0;"/></g><!--link trinamic_tmc5041_bindings to steppermotor_controller_bindings--><g id="link_trinamic_tmc5041_bindings_steppermotor_controller_bindings"><path codeLine="22" d="M155.05,71.89 C175.65,89.72 197.0446,108.2418 219.0046,127.2618 " fill="none" id="trinamic_tmc5041_bindings-to-steppermotor_controller_bindings" style="stroke:#181818;stroke-width:1.0;stroke-dasharray:7.0,7.0;"/><polygon fill="#181818" points="223.54,131.19,219.3557,122.2742,219.7605,127.9165,214.1182,128.3213,223.54,131.19" style="stroke:#181818;stroke-width:1.0;"/></g><!--link gpio_stepper_motor_controller_bindings to steppermotor_controller_bindings--><g id="link_gpio_stepper_motor_controller_bindings_steppermotor_controller_bindings"><path codeLine="23" d="M383.95,71.89 C363.35,89.72 341.9554,108.2418 319.9954,127.2618 " fill="none" id="gpio_stepper_motor_controller_bindings-to-steppermotor_controller_bindings" style="stroke:#181818;stroke-width:1.0;stroke-dasharray:7.0,7.0;"/><polygon fill="#181818" points="315.46,131.19,324.8818,128.3213,319.2395,127.9165,319.6443,122.2742,315.46,131.19" style="stroke:#181818;stroke-width:1.0;"/></g><!--SRC=[ZL2vRiCm39sZhz3MoNOBj4k7_eh0o8GYG1T8sa0GvDyhAt4ssnbvlFFZ8bBuTnXAW2HJ3BtDSR01cBlHWoE8IhLHnooPZCr9A8U0PCu-ZJuvrZTryaaqeLCd5gexxH3848ZFwlx4is0fIBiqcAQeexUKpV9k23c7gRAaXyIoP5DPwcLUBoy1f3blqZ-V5djG5On4-_Fv_VMwtrO52A5p4z3OCOeqw7tjm1N_SBPOs4rIBf36W1qGmRNX6irX2Nt_jzsqsezu0DwCtd17pjIRsT_Y-WS0]--></g></svg>